<svg width="43" height="31" viewBox="0 0 43 31" fill="none" xmlns="http://www.w3.org/2000/svg">
<path d="M27.7275 25.4797C27.9382 25.6676 29.8077 27.1976 33.4152 26.795C37.4176 26.3386 39.2345 23.3592 39.2345 20.7824C39.2345 18.125 37.6546 15.8166 35.2848 15.0651C34.1262 14.6893 33.3362 13.5888 33.3362 12.3272C33.3362 8.00565 30.0447 4.48937 25.9896 4.48937C23.1721 4.48937 20.5652 6.26093 19.354 8.9988C18.7747 10.2872 17.4054 10.9314 16.0625 10.5825C15.6148 10.4483 15.1408 10.3946 14.7195 10.3946C11.7177 10.3946 9.29516 13.0251 9.29516 16.2193V16.6219C9.29516 17.4003 8.68953 18.0713 7.9259 18.125L7.53093 18.1519C5.39804 18.2861 3.73913 20.165 3.73913 22.4734C3.73913 24.245 4.42376 25.7213 5.89835 26.3386C6.34599 26.5265 7.29394 26.6071 8.13656 25.8555C8.16289 25.8286 8.34721 25.6676 8.37355 25.6408L16.1678 18.3398C16.6418 17.8835 20.3282 14.4745 23.7777 14.3672C24.4887 14.3135 29.3864 14.3135 32.0196 18.5813C32.0196 18.5813 32.0459 18.6082 32.0723 18.6887C32.2566 19.0108 32.1776 19.4134 31.8879 19.6282C31.7826 19.7087 31.6773 19.7892 31.572 19.8698C30.387 20.6482 29.2811 20.7555 27.5958 18.984C27.5958 18.984 26.2792 17.5882 23.9094 18.1787C22.0925 18.5008 19.7226 20.165 18.722 21.1313L18.6957 21.1582L10.1641 29.0497C8.61053 30.3918 6.55664 30.6602 4.84507 29.9891C1.86957 28.7812 0 25.7481 0 22.4197C0 18.8498 2.21188 15.7629 5.29271 14.6893C5.5297 14.6087 5.68769 14.394 5.74036 14.1524C6.63564 9.80406 10.3221 6.52935 14.6932 6.52935C15.0619 6.52935 15.4568 6.55619 15.8255 6.60988C16.0888 6.63672 16.3521 6.50251 16.5101 6.28777C18.5113 2.82517 22.0925 0.677826 25.9896 0.677826C31.7563 0.677826 36.496 5.32147 37.0227 11.2267C37.049 11.4951 37.207 11.7367 37.444 11.844C40.7881 13.4009 43 16.8635 43 20.8092C43 25.8823 39.1555 30.016 33.8628 30.6065C33.3362 30.6602 32.8096 30.687 32.2829 30.687C30.5713 30.687 28.9651 30.3649 27.5432 29.7476C26.2266 29.157 25.4366 28.5128 25.226 28.2981C24.2517 27.4392 23.1457 26.0165 22.3295 23.735C22.1978 23.386 22.3558 22.9834 22.6981 22.8224C22.8561 22.7687 23.0404 22.6881 23.2511 22.6345C24.9363 22.1782 25.9106 23.2518 26.6216 24.1913C26.5689 24.1913 27.2535 25.1308 27.7275 25.4797Z" fill="white"/>
</svg>
